<svg width="16" height="16" viewBox="0 0 16 16" fill="none" xmlns="http://www.w3.org/2000/svg">
<path fill-rule="evenodd" clip-rule="evenodd" d="M9.33331 4.66667C9.33331 3.93133 8.73531 3.33333 7.99998 3.33333C7.26465 3.33333 6.66665 3.93133 6.66665 4.66667C6.66665 5.402 7.26465 6 7.99998 6C8.73531 6 9.33331 5.402 9.33331 4.66667ZM10.6666 4.66667C10.6666 6.13733 9.47065 7.33333 7.99998 7.33333C6.52931 7.33333 5.33331 6.13733 5.33331 4.66667C5.33331 3.196 6.52931 2 7.99998 2C9.47065 2 10.6666 3.196 10.6666 4.66667ZM3.33331 13.3333C3.33331 10.76 5.42731 8.66667 7.99998 8.66667C10.5726 8.66667 12.6666 10.76 12.6666 13.3333C12.6666 13.7013 12.3686 14 12 14C11.6313 14 11.3333 13.7013 11.3333 13.3333C11.3333 11.4953 9.83798 10 7.99998 10C6.16198 10 4.66665 11.4953 4.66665 13.3333C4.66665 13.7013 4.36865 14 3.99998 14C3.63131 14 3.33331 13.7013 3.33331 13.3333Z" fill="#BD744C"/>
<mask id="mask0" mask-type="alpha" maskUnits="userSpaceOnUse" x="3" y="2" width="10" height="12">
<path fill-rule="evenodd" clip-rule="evenodd" d="M9.33331 4.66667C9.33331 3.93133 8.73531 3.33333 7.99998 3.33333C7.26465 3.33333 6.66665 3.93133 6.66665 4.66667C6.66665 5.402 7.26465 6 7.99998 6C8.73531 6 9.33331 5.402 9.33331 4.66667ZM10.6666 4.66667C10.6666 6.13733 9.47065 7.33333 7.99998 7.33333C6.52931 7.33333 5.33331 6.13733 5.33331 4.66667C5.33331 3.196 6.52931 2 7.99998 2C9.47065 2 10.6666 3.196 10.6666 4.66667ZM3.33331 13.3333C3.33331 10.76 5.42731 8.66667 7.99998 8.66667C10.5726 8.66667 12.6666 10.76 12.6666 13.3333C12.6666 13.7013 12.3686 14 12 14C11.6313 14 11.3333 13.7013 11.3333 13.3333C11.3333 11.4953 9.83798 10 7.99998 10C6.16198 10 4.66665 11.4953 4.66665 13.3333C4.66665 13.7013 4.36865 14 3.99998 14C3.63131 14 3.33331 13.7013 3.33331 13.3333Z" fill="white"/>
</mask>
<g mask="url(#mask0)">
<rect width="16" height="16" fill="#BD744C"/>
</g>
</svg>
