<svg width="16" height="16" viewBox="0 0 16 16" fill="none" xmlns="http://www.w3.org/2000/svg">
<path fill-rule="evenodd" clip-rule="evenodd" d="M10.9212 9.33333H5.84252L4.75119 5.33333H12.9212L10.9212 9.33333ZM14.0552 4.632C13.8105 4.236 13.3865 4 12.9212 4H4.38786L3.97652 2.49133C3.89719 2.20133 3.63386 2 3.33319 2H1.99986C1.63119 2 1.33319 2.29867 1.33319 2.66667C1.33319 3.03467 1.63119 3.33333 1.99986 3.33333H2.82386L4.68986 10.1753C4.76919 10.4653 5.03252 10.6667 5.33319 10.6667H11.3332C11.5859 10.6667 11.8165 10.524 11.9299 10.298L14.1139 5.92933C14.3225 5.51267 14.2999 5.028 14.0552 4.632ZM4.99999 12C4.44799 12 3.99999 12.4473 3.99999 13C3.99999 13.5527 4.44799 14 4.99999 14C5.55199 14 5.99999 13.5527 5.99999 13C5.99999 12.4473 5.55199 12 4.99999 12ZM10.6667 13C10.6667 12.4473 11.1147 12 11.6667 12C12.2187 12 12.6667 12.4473 12.6667 13C12.6667 13.5527 12.2187 14 11.6667 14C11.1147 14 10.6667 13.5527 10.6667 13Z" fill="#BD744C"/>
<mask id="mask0" mask-type="alpha" maskUnits="userSpaceOnUse" x="1" y="2" width="14" height="12">
<path fill-rule="evenodd" clip-rule="evenodd" d="M10.9212 9.33333H5.84252L4.75119 5.33333H12.9212L10.9212 9.33333ZM14.0552 4.632C13.8105 4.236 13.3865 4 12.9212 4H4.38786L3.97652 2.49133C3.89719 2.20133 3.63386 2 3.33319 2H1.99986C1.63119 2 1.33319 2.29867 1.33319 2.66667C1.33319 3.03467 1.63119 3.33333 1.99986 3.33333H2.82386L4.68986 10.1753C4.76919 10.4653 5.03252 10.6667 5.33319 10.6667H11.3332C11.5859 10.6667 11.8165 10.524 11.9299 10.298L14.1139 5.92933C14.3225 5.51267 14.2999 5.028 14.0552 4.632ZM4.99999 12C4.44799 12 3.99999 12.4473 3.99999 13C3.99999 13.5527 4.44799 14 4.99999 14C5.55199 14 5.99999 13.5527 5.99999 13C5.99999 12.4473 5.55199 12 4.99999 12ZM10.6667 13C10.6667 12.4473 11.1147 12 11.6667 12C12.2187 12 12.6667 12.4473 12.6667 13C12.6667 13.5527 12.2187 14 11.6667 14C11.1147 14 10.6667 13.5527 10.6667 13Z" fill="white"/>
</mask>
<g mask="url(#mask0)">
<rect width="16" height="16" fill="#BD744C"/>
</g>
</svg>
