<svg width="48" height="48" viewBox="0 0 48 48" fill="none" xmlns="http://www.w3.org/2000/svg">
<path fill-rule="evenodd" clip-rule="evenodd" d="M14.4396 12C12.7116 12 11.0916 12.668 9.87961 13.882C7.36361 16.402 7.36361 20.504 9.88161 23.028L23.9996 37.17L38.1196 23.028C40.6376 20.504 40.6376 16.402 38.1196 13.882C35.6956 11.452 31.4236 11.456 28.9996 13.882L25.4156 17.472C24.6636 18.226 23.3356 18.226 22.5836 17.472L18.9996 13.88C17.7876 12.668 16.1696 12 14.4396 12ZM23.9996 42C23.4696 42 22.9596 41.79 22.5856 41.412L7.04961 25.852C2.97761 21.772 2.97761 15.134 7.04961 11.054C9.01761 9.086 11.6416 8 14.4396 8C17.2376 8 19.8636 9.086 21.8296 11.054L23.9996 13.228L26.1696 11.056C28.1376 9.086 30.7616 8 33.5616 8C36.3576 8 38.9836 9.086 40.9496 11.054C45.0236 15.134 45.0236 21.772 40.9516 25.852L25.4156 41.414C25.0396 41.79 24.5316 42 23.9996 42Z" fill="#BD744C"/>
<mask id="mask0" mask-type="alpha" maskUnits="userSpaceOnUse" x="3" y="8" width="42" height="34">
<path fill-rule="evenodd" clip-rule="evenodd" d="M14.4396 12C12.7116 12 11.0916 12.668 9.87961 13.882C7.36361 16.402 7.36361 20.504 9.88161 23.028L23.9996 37.17L38.1196 23.028C40.6376 20.504 40.6376 16.402 38.1196 13.882C35.6956 11.452 31.4236 11.456 28.9996 13.882L25.4156 17.472C24.6636 18.226 23.3356 18.226 22.5836 17.472L18.9996 13.88C17.7876 12.668 16.1696 12 14.4396 12ZM23.9996 42C23.4696 42 22.9596 41.79 22.5856 41.412L7.04961 25.852C2.97761 21.772 2.97761 15.134 7.04961 11.054C9.01761 9.086 11.6416 8 14.4396 8C17.2376 8 19.8636 9.086 21.8296 11.054L23.9996 13.228L26.1696 11.056C28.1376 9.086 30.7616 8 33.5616 8C36.3576 8 38.9836 9.086 40.9496 11.054C45.0236 15.134 45.0236 21.772 40.9516 25.852L25.4156 41.414C25.0396 41.79 24.5316 42 23.9996 42Z" fill="white"/>
</mask>
<g mask="url(#mask0)">
<rect width="48" height="48" fill="#BD744C"/>
</g>
</svg>
