<svg width="96" height="21" viewBox="0 0 96 21" fill="none" xmlns="http://www.w3.org/2000/svg">
<path d="M4.19688 4.6V8.3H10.6769V10.9H4.19688V16H0.956875V2H11.5369V4.6H4.19688ZM13.5103 1.16H16.6303V16H13.5103V1.16ZM23.8659 5.08C25.5326 5.08 26.8126 5.48 27.7059 6.28C28.5993 7.06667 29.0459 8.26 29.0459 9.86V16H26.1259V14.66C25.5393 15.66 24.4459 16.16 22.8459 16.16C22.0193 16.16 21.2993 16.02 20.6859 15.74C20.0859 15.46 19.6259 15.0733 19.3059 14.58C18.9859 14.0867 18.8259 13.5267 18.8259 12.9C18.8259 11.9 19.1993 11.1133 19.9459 10.54C20.7059 9.96667 21.8726 9.68 23.4459 9.68H25.9259C25.9259 9 25.7193 8.48 25.3059 8.12C24.8926 7.74667 24.2726 7.56 23.4459 7.56C22.8726 7.56 22.3059 7.65333 21.7459 7.84C21.1993 8.01333 20.7326 8.25333 20.3459 8.56L19.2259 6.38C19.8126 5.96667 20.5126 5.64667 21.3259 5.42C22.1526 5.19333 22.9993 5.08 23.8659 5.08ZM23.6259 14.06C24.1593 14.06 24.6326 13.94 25.0459 13.7C25.4593 13.4467 25.7526 13.08 25.9259 12.6V11.5H23.7859C22.5059 11.5 21.8659 11.92 21.8659 12.76C21.8659 13.16 22.0193 13.48 22.3259 13.72C22.6459 13.9467 23.0793 14.06 23.6259 14.06ZM38.8097 15.48C38.503 15.7067 38.123 15.88 37.6697 16C37.2297 16.1067 36.763 16.16 36.2697 16.16C34.9897 16.16 33.9964 15.8333 33.2897 15.18C32.5964 14.5267 32.2497 13.5667 32.2497 12.3V7.88H30.5897V5.48H32.2497V2.86H35.3697V5.48H38.0497V7.88H35.3697V12.26C35.3697 12.7133 35.483 13.0667 35.7097 13.32C35.9497 13.56 36.283 13.68 36.7097 13.68C37.203 13.68 37.623 13.5467 37.9697 13.28L38.8097 15.48ZM40.5611 1.16H43.6811V16H40.5611V1.16ZM51.6967 16.16C50.5634 16.16 49.5434 15.9267 48.6367 15.46C47.7434 14.98 47.0434 14.32 46.5367 13.48C46.0301 12.64 45.7767 11.6867 45.7767 10.62C45.7767 9.55333 46.0301 8.6 46.5367 7.76C47.0434 6.92 47.7434 6.26667 48.6367 5.8C49.5434 5.32 50.5634 5.08 51.6967 5.08C52.8301 5.08 53.8434 5.32 54.7367 5.8C55.6301 6.26667 56.3301 6.92 56.8367 7.76C57.3434 8.6 57.5967 9.55333 57.5967 10.62C57.5967 11.6867 57.3434 12.64 56.8367 13.48C56.3301 14.32 55.6301 14.98 54.7367 15.46C53.8434 15.9267 52.8301 16.16 51.6967 16.16ZM51.6967 13.6C52.4967 13.6 53.1501 13.3333 53.6567 12.8C54.1767 12.2533 54.4367 11.5267 54.4367 10.62C54.4367 9.71333 54.1767 8.99333 53.6567 8.46C53.1501 7.91333 52.4967 7.64 51.6967 7.64C50.8967 7.64 50.2367 7.91333 49.7167 8.46C49.1967 8.99333 48.9367 9.71333 48.9367 10.62C48.9367 11.5267 49.1967 12.2533 49.7167 12.8C50.2367 13.3333 50.8967 13.6 51.6967 13.6ZM70.7822 5.24V14.2C70.7822 16.1733 70.2689 17.64 69.2422 18.6C68.2155 19.56 66.7155 20.04 64.7422 20.04C63.7022 20.04 62.7155 19.9133 61.7822 19.66C60.8489 19.4067 60.0755 19.04 59.4622 18.56L60.7022 16.32C61.1555 16.6933 61.7289 16.9867 62.4222 17.2C63.1155 17.4267 63.8089 17.54 64.5022 17.54C65.5822 17.54 66.3755 17.2933 66.8822 16.8C67.4022 16.32 67.6622 15.5867 67.6622 14.6V14.14C66.8489 15.0333 65.7155 15.48 64.2622 15.48C63.2755 15.48 62.3689 15.2667 61.5422 14.84C60.7289 14.4 60.0822 13.7867 59.6022 13C59.1222 12.2133 58.8822 11.3067 58.8822 10.28C58.8822 9.25333 59.1222 8.34667 59.6022 7.56C60.0822 6.77333 60.7289 6.16667 61.5422 5.74C62.3689 5.3 63.2755 5.08 64.2622 5.08C65.8222 5.08 67.0089 5.59333 67.8222 6.62V5.24H70.7822ZM64.8822 12.92C65.7089 12.92 66.3822 12.68 66.9022 12.2C67.4355 11.7067 67.7022 11.0667 67.7022 10.28C67.7022 9.49333 67.4355 8.86 66.9022 8.38C66.3822 7.88667 65.7089 7.64 64.8822 7.64C64.0555 7.64 63.3755 7.88667 62.8422 8.38C62.3089 8.86 62.0422 9.49333 62.0422 10.28C62.0422 11.0667 62.3089 11.7067 62.8422 12.2C63.3755 12.68 64.0555 12.92 64.8822 12.92ZM73.6861 5.24H76.8061V16H73.6861V5.24ZM75.2461 3.74C74.6728 3.74 74.2061 3.57333 73.8461 3.24C73.4861 2.90667 73.3061 2.49333 73.3061 2C73.3061 1.50667 73.4861 1.09333 73.8461 0.76C74.2061 0.426666 74.6728 0.259999 75.2461 0.259999C75.8194 0.259999 76.2861 0.419999 76.6461 0.74C77.0061 1.06 77.1861 1.46 77.1861 1.94C77.1861 2.46 77.0061 2.89333 76.6461 3.24C76.2861 3.57333 75.8194 3.74 75.2461 3.74ZM84.9017 16.16C83.7551 16.16 82.7217 15.9267 81.8017 15.46C80.8951 14.98 80.1817 14.32 79.6617 13.48C79.1551 12.64 78.9017 11.6867 78.9017 10.62C78.9017 9.55333 79.1551 8.6 79.6617 7.76C80.1817 6.92 80.8951 6.26667 81.8017 5.8C82.7217 5.32 83.7551 5.08 84.9017 5.08C86.0351 5.08 87.0217 5.32 87.8617 5.8C88.7151 6.26667 89.3351 6.94 89.7217 7.82L87.3017 9.12C86.7417 8.13333 85.9351 7.64 84.8817 7.64C84.0684 7.64 83.3951 7.90667 82.8617 8.44C82.3284 8.97333 82.0617 9.7 82.0617 10.62C82.0617 11.54 82.3284 12.2667 82.8617 12.8C83.3951 13.3333 84.0684 13.6 84.8817 13.6C85.9484 13.6 86.7551 13.1067 87.3017 12.12L89.7217 13.44C89.3351 14.2933 88.7151 14.96 87.8617 15.44C87.0217 15.92 86.0351 16.16 84.9017 16.16ZM93.0888 16.16C92.5421 16.16 92.0821 15.9733 91.7088 15.6C91.3354 15.2267 91.1488 14.76 91.1488 14.2C91.1488 13.6267 91.3354 13.1667 91.7088 12.82C92.0821 12.46 92.5421 12.28 93.0888 12.28C93.6354 12.28 94.0954 12.46 94.4688 12.82C94.8421 13.1667 95.0288 13.6267 95.0288 14.2C95.0288 14.76 94.8421 15.2267 94.4688 15.6C94.0954 15.9733 93.6354 16.16 93.0888 16.16Z" fill="white"/>
</svg>
