<svg width="94" height="21" viewBox="0 0 94 21" fill="none" xmlns="http://www.w3.org/2000/svg">
<path d="M3.39219 4.6V8.3H9.87219V10.9H3.39219V16H0.152188V2H10.7322V4.6H3.39219ZM12.7056 1.16H15.8256V16H12.7056V1.16ZM23.0613 5.08C24.7279 5.08 26.0079 5.48 26.9013 6.28C27.7946 7.06667 28.2413 8.26 28.2413 9.86V16H25.3213V14.66C24.7346 15.66 23.6413 16.16 22.0413 16.16C21.2146 16.16 20.4946 16.02 19.8813 15.74C19.2813 15.46 18.8213 15.0733 18.5013 14.58C18.1813 14.0867 18.0213 13.5267 18.0213 12.9C18.0213 11.9 18.3946 11.1133 19.1413 10.54C19.9013 9.96667 21.0679 9.68 22.6413 9.68H25.1213C25.1213 9 24.9146 8.48 24.5013 8.12C24.0879 7.74667 23.4679 7.56 22.6413 7.56C22.0679 7.56 21.5013 7.65333 20.9413 7.84C20.3946 8.01333 19.9279 8.25333 19.5413 8.56L18.4213 6.38C19.0079 5.96667 19.7079 5.64667 20.5213 5.42C21.3479 5.19333 22.1946 5.08 23.0613 5.08ZM22.8213 14.06C23.3546 14.06 23.8279 13.94 24.2413 13.7C24.6546 13.4467 24.9479 13.08 25.1213 12.6V11.5H22.9813C21.7013 11.5 21.0613 11.92 21.0613 12.76C21.0613 13.16 21.2146 13.48 21.5213 13.72C21.8413 13.9467 22.2746 14.06 22.8213 14.06ZM38.005 15.48C37.6983 15.7067 37.3183 15.88 36.865 16C36.425 16.1067 35.9583 16.16 35.465 16.16C34.185 16.16 33.1917 15.8333 32.485 15.18C31.7917 14.5267 31.445 13.5667 31.445 12.3V7.88H29.785V5.48H31.445V2.86H34.565V5.48H37.245V7.88H34.565V12.26C34.565 12.7133 34.6783 13.0667 34.905 13.32C35.145 13.56 35.4783 13.68 35.905 13.68C36.3983 13.68 36.8183 13.5467 37.165 13.28L38.005 15.48ZM39.7564 1.16H42.8764V16H39.7564V1.16ZM50.892 16.16C49.7587 16.16 48.7387 15.9267 47.832 15.46C46.9387 14.98 46.2387 14.32 45.732 13.48C45.2254 12.64 44.972 11.6867 44.972 10.62C44.972 9.55333 45.2254 8.6 45.732 7.76C46.2387 6.92 46.9387 6.26667 47.832 5.8C48.7387 5.32 49.7587 5.08 50.892 5.08C52.0254 5.08 53.0387 5.32 53.932 5.8C54.8254 6.26667 55.5254 6.92 56.032 7.76C56.5387 8.6 56.792 9.55333 56.792 10.62C56.792 11.6867 56.5387 12.64 56.032 13.48C55.5254 14.32 54.8254 14.98 53.932 15.46C53.0387 15.9267 52.0254 16.16 50.892 16.16ZM50.892 13.6C51.692 13.6 52.3454 13.3333 52.852 12.8C53.372 12.2533 53.632 11.5267 53.632 10.62C53.632 9.71333 53.372 8.99333 52.852 8.46C52.3454 7.91333 51.692 7.64 50.892 7.64C50.092 7.64 49.432 7.91333 48.912 8.46C48.392 8.99333 48.132 9.71333 48.132 10.62C48.132 11.5267 48.392 12.2533 48.912 12.8C49.432 13.3333 50.092 13.6 50.892 13.6ZM69.9775 5.24V14.2C69.9775 16.1733 69.4642 17.64 68.4375 18.6C67.4108 19.56 65.9108 20.04 63.9375 20.04C62.8975 20.04 61.9108 19.9133 60.9775 19.66C60.0442 19.4067 59.2708 19.04 58.6575 18.56L59.8975 16.32C60.3508 16.6933 60.9242 16.9867 61.6175 17.2C62.3108 17.4267 63.0042 17.54 63.6975 17.54C64.7775 17.54 65.5708 17.2933 66.0775 16.8C66.5975 16.32 66.8575 15.5867 66.8575 14.6V14.14C66.0442 15.0333 64.9108 15.48 63.4575 15.48C62.4708 15.48 61.5642 15.2667 60.7375 14.84C59.9242 14.4 59.2775 13.7867 58.7975 13C58.3175 12.2133 58.0775 11.3067 58.0775 10.28C58.0775 9.25333 58.3175 8.34667 58.7975 7.56C59.2775 6.77333 59.9242 6.16667 60.7375 5.74C61.5642 5.3 62.4708 5.08 63.4575 5.08C65.0175 5.08 66.2042 5.59333 67.0175 6.62V5.24H69.9775ZM64.0775 12.92C64.9042 12.92 65.5775 12.68 66.0975 12.2C66.6308 11.7067 66.8975 11.0667 66.8975 10.28C66.8975 9.49333 66.6308 8.86 66.0975 8.38C65.5775 7.88667 64.9042 7.64 64.0775 7.64C63.2508 7.64 62.5708 7.88667 62.0375 8.38C61.5042 8.86 61.2375 9.49333 61.2375 10.28C61.2375 11.0667 61.5042 11.7067 62.0375 12.2C62.5708 12.68 63.2508 12.92 64.0775 12.92ZM72.8814 5.24H76.0014V16H72.8814V5.24ZM74.4414 3.74C73.8681 3.74 73.4014 3.57333 73.0414 3.24C72.6814 2.90667 72.5014 2.49333 72.5014 2C72.5014 1.50667 72.6814 1.09333 73.0414 0.76C73.4014 0.426666 73.8681 0.259999 74.4414 0.259999C75.0147 0.259999 75.4814 0.419999 75.8414 0.74C76.2014 1.06 76.3814 1.46 76.3814 1.94C76.3814 2.46 76.2014 2.89333 75.8414 3.24C75.4814 3.57333 75.0147 3.74 74.4414 3.74ZM84.097 16.16C82.9504 16.16 81.917 15.9267 80.997 15.46C80.0904 14.98 79.377 14.32 78.857 13.48C78.3504 12.64 78.097 11.6867 78.097 10.62C78.097 9.55333 78.3504 8.6 78.857 7.76C79.377 6.92 80.0904 6.26667 80.997 5.8C81.917 5.32 82.9504 5.08 84.097 5.08C85.2304 5.08 86.217 5.32 87.057 5.8C87.9104 6.26667 88.5304 6.94 88.917 7.82L86.497 9.12C85.937 8.13333 85.1304 7.64 84.077 7.64C83.2637 7.64 82.5904 7.90667 82.057 8.44C81.5237 8.97333 81.257 9.7 81.257 10.62C81.257 11.54 81.5237 12.2667 82.057 12.8C82.5904 13.3333 83.2637 13.6 84.077 13.6C85.1437 13.6 85.9504 13.1067 86.497 12.12L88.917 13.44C88.5304 14.2933 87.9104 14.96 87.057 15.44C86.217 15.92 85.2304 16.16 84.097 16.16Z" fill="black"/>
<path d="M91.8934 16.16C91.3468 16.16 90.8868 15.9733 90.5134 15.6C90.1401 15.2267 89.9534 14.76 89.9534 14.2C89.9534 13.6267 90.1401 13.1667 90.5134 12.82C90.8868 12.46 91.3468 12.28 91.8934 12.28C92.4401 12.28 92.9001 12.46 93.2734 12.82C93.6468 13.1667 93.8334 13.6267 93.8334 14.2C93.8334 14.76 93.6468 15.2267 93.2734 15.6C92.9001 15.9733 92.4401 16.16 91.8934 16.16Z" fill="#BD744C"/>
</svg>
